<svg xmlns="http://www.w3.org/2000/svg" viewBox="0 0 1883.734 616.427"><defs><style>.cls-1{stroke:#000;stroke-miterlimit:10;stroke-width:5px;}</style></defs><title>logo</title><g id="Layer_1" data-name="Layer 1"><polygon points="227.844 363.094 227.844 616.427 400.548 471.294 387.023 0 200.274 227.324 13.525 0 0 471.294 172.704 616.427 172.704 363.094 84.791 363.094 87.912 386.502 62.943 325.64 200.274 325.64 337.604 325.64 312.635 386.502 315.756 363.094 227.844 363.094"/><path d="M618.148,396.573H582.8V501h-8.676V396.573H538.782V388.54h79.366Z" transform="translate(-58.133 -143.786)"/><path d="M715.029,470.317A30.581,30.581,0,0,1,684.343,501H635.824V388.54h44.823A29.586,29.586,0,0,1,710.209,418.1a27.427,27.427,0,0,1-14.459,24.581A29.487,29.487,0,0,1,715.029,470.317Zm-70.691-73.744V439.63h36.309a21.534,21.534,0,0,0,0-43.057Zm62.176,73.744a22.425,22.425,0,0,0-22.171-22.654h-40v45.306h40A22.425,22.425,0,0,0,706.514,470.317Z" transform="translate(-58.133 -143.786)"/><path d="M744.432,388.54V501h-8.515V388.54Z" transform="translate(-58.133 -143.786)"/><path d="M833.919,492.969V501H772.387V388.54H780.9V492.969Z" transform="translate(-58.133 -143.786)"/><path d="M860.109,388.54V501H851.6V388.54Z" transform="translate(-58.133 -143.786)"/><path d="M879.711,476.261l7.391-4.338c3.856,13.5,15.262,22.652,33.738,22.652,18.8,0,28.276-9.639,28.276-22.492,0-13.5-11.888-18.637-29.079-24.1-18.8-6.106-35.667-11.408-35.667-31.008,0-18.476,14.942-30.2,34.06-30.2,18.476,0,30.686,10.6,36.149,23.617l-7.23,4.016c-4.177-10.121-12.853-19.439-28.919-19.439-15.584,0-25.384,9.157-25.384,21.688,0,13.5,11.407,17.673,27.473,22.975,19.921,6.587,37.273,12.853,37.273,32.293,0,18.636-14.62,30.847-36.952,30.847C899.793,502.77,884.852,492.166,879.711,476.261Z" transform="translate(-58.133 -143.786)"/><path d="M986.393,388.54V501h-8.515V388.54Z" transform="translate(-58.133 -143.786)"/><path class="cls-1" d="M1158.943,501h-8.514V401.071l-41.612,69.084h-1.445l-41.611-69.084V501h-8.515V388.54h10.6l40.165,66.514,40.165-66.514h10.763Z" transform="translate(-58.133 -143.786)"/><path class="cls-1" d="M1185.3,463.407V388.54h8.515v74.867c0,18.316,11.407,31.168,32.614,31.168,21.367,0,32.774-12.852,32.774-31.168V388.54h8.515v74.867c0,23.779-16.548,39.363-41.289,39.363S1185.3,487.186,1185.3,463.407Z" transform="translate(-58.133 -143.786)"/><path class="cls-1" d="M1338.087,454.893h-35.506V501h-8.515V388.54h44.342a33.157,33.157,0,0,1,8.516,65.228L1374.878,501h-9.8Zm-35.506-8.033h35.827a25.147,25.147,0,0,0,0-50.287h-35.827Z" transform="translate(-58.133 -143.786)"/><path class="cls-1" d="M1457.3,472.4h-56.392L1389.984,501h-9l43.7-112.462h9L1477.223,501h-9Zm-3.053-8.033-25.063-65.387-25.063,65.387Z" transform="translate(-58.133 -143.786)"/><path class="cls-1" d="M1555.146,492.969V501h-61.533V388.54h8.515V492.969Z" transform="translate(-58.133 -143.786)"/><path d="M1624.234,396.573v44.985h51.894v8.033h-51.894V501h-8.514V388.54h62.336v8.033Z" transform="translate(-58.133 -143.786)"/><path d="M1763.689,492.969V501h-64.746V388.54h63.943v8.033h-55.428v43.7h51.411v8.033h-51.411v44.663Z" transform="translate(-58.133 -143.786)"/><path d="M1777.829,476.261l7.391-4.338c3.855,13.5,15.262,22.652,33.738,22.652,18.8,0,28.276-9.639,28.276-22.492,0-13.5-11.888-18.637-29.079-24.1-18.8-6.106-35.667-11.408-35.667-31.008,0-18.476,14.942-30.2,34.06-30.2,18.476,0,30.686,10.6,36.148,23.617l-7.229,4.016c-4.177-10.121-12.853-19.439-28.919-19.439-15.584,0-25.384,9.157-25.384,21.688,0,13.5,11.407,17.673,27.473,22.975,19.922,6.587,37.273,12.853,37.273,32.293,0,18.636-14.62,30.847-36.952,30.847C1797.912,502.77,1782.971,492.166,1777.829,476.261Z" transform="translate(-58.133 -143.786)"/><path d="M1941.867,396.573h-35.346V501h-8.675V396.573H1862.5V388.54h79.366Z" transform="translate(-58.133 -143.786)"/></g></svg>